<svg width="16" height="16" viewBox="0 0 16 16" fill="none" xmlns="http://www.w3.org/2000/svg">
<path d="M8 0C3.58169 0 0 3.58169 0 8C0 12.4183 3.58169 16 8 16C12.4183 16 16 12.4183 16 8C16 3.58169 12.4183 0 8 0Z" fill="#40B3E0"/>
<path d="M11.8927 4.60187L10.4638 11.8062C10.4638 11.8062 10.264 12.3058 9.7144 12.066L6.41703 9.538L5.21803 8.9585L3.19965 8.279C3.19965 8.279 2.8899 8.16912 2.8599 7.92931C2.8299 7.6895 3.20965 7.55962 3.20965 7.55962L11.2332 4.41212C11.2332 4.41212 11.8927 4.12237 11.8927 4.602" fill="white"/>
<path d="M6.16364 11.7252C6.16364 11.7252 6.06739 11.7162 5.94739 11.3364C5.82758 10.9567 5.21802 8.95837 5.21802 8.95837L10.0641 5.88087C10.0641 5.88087 10.344 5.711 10.334 5.88087C10.334 5.88087 10.3839 5.91087 10.234 6.05075C10.0841 6.19069 6.42708 9.478 6.42708 9.478" fill="#D2E5F1"/>
<path d="M7.68132 10.5072L6.37714 11.6963C6.37714 11.6963 6.27514 11.7737 6.16364 11.7252L6.41339 9.51643" fill="#B5CFE4"/>
</svg>
