<svg width="50" height="50" viewBox="0 0 50 50" fill="none" xmlns="http://www.w3.org/2000/svg">
<circle cx="25" cy="25" r="25" fill="#F57500"/>
<path d="M34.3361 18H15.6639C15.4878 18.0002 15.3191 18.0676 15.1946 18.1875C15.0701 18.3073 15.0001 18.4698 15 18.6393V19.9253C15 19.9845 15.0668 20.0525 15.1213 20.08L24.9358 25.4757C24.961 25.4896 24.9895 25.4967 25.0184 25.4965C25.048 25.4966 25.0771 25.489 25.1026 25.4745L34.6205 20.0853C34.674 20.0565 34.8158 19.9805 34.8691 19.9455C34.9335 19.9033 35 19.865 35 19.7893V18.639C34.9998 18.4696 34.9298 18.3072 34.8053 18.1874C34.6809 18.0676 34.5121 18.0002 34.3361 18V18Z" fill="white"/>
<path d="M34.9171 21.8643C34.8916 21.8502 34.8626 21.8429 34.8332 21.8431C34.8038 21.8433 34.775 21.8509 34.7496 21.8653L29.3634 24.9155C29.3419 24.9275 29.3235 24.9441 29.3096 24.9639C29.2957 24.9837 29.2866 25.0063 29.283 25.0299C29.2794 25.0536 29.2813 25.0777 29.2887 25.1005C29.2961 25.1233 29.3088 25.1443 29.3257 25.1618L34.7127 30.751C34.7282 30.7671 34.7469 30.78 34.7678 30.7888C34.7887 30.7976 34.8112 30.8021 34.834 30.802C34.878 30.8019 34.9202 30.7851 34.9513 30.7551C34.9824 30.7252 34.9999 30.6846 35 30.6423V22.003C35.0001 21.9749 34.9925 21.9473 34.978 21.9229C34.9634 21.8985 34.9424 21.8783 34.9171 21.8643Z" fill="white"/>
<path d="M27.8112 25.9398C27.7856 25.913 27.7513 25.8954 27.7139 25.89C27.6765 25.8847 27.6383 25.8918 27.6057 25.9103L25.4468 27.133C25.3203 27.2033 25.1769 27.2408 25.0309 27.2417C24.8848 27.2427 24.7409 27.207 24.6135 27.1383L22.7135 26.0935C22.6828 26.0767 22.6474 26.0697 22.6123 26.0736C22.5773 26.0774 22.5444 26.0919 22.5184 26.115L15.3034 32.5565C15.2845 32.5735 15.2699 32.5946 15.261 32.6179C15.252 32.6413 15.2488 32.6664 15.2517 32.6912C15.2546 32.7159 15.2634 32.7397 15.2775 32.7606C15.2916 32.7815 15.3106 32.7989 15.333 32.8115C15.4452 32.875 15.5535 32.9053 15.6636 32.9053H34.1449C34.1773 32.9053 34.2089 32.8962 34.2359 32.8791C34.263 32.862 34.2841 32.8376 34.2969 32.809C34.3098 32.7806 34.3138 32.7491 34.3084 32.7185C34.303 32.6878 34.2883 32.6594 34.2662 32.6368L27.8112 25.9398Z" fill="white"/>
<path d="M20.9309 25.353C20.95 25.336 20.9647 25.3149 20.9738 25.2914C20.9829 25.268 20.9861 25.2428 20.9832 25.2179C20.9803 25.193 20.9713 25.1691 20.957 25.1481C20.9428 25.1272 20.9236 25.1098 20.901 25.0973L15.2475 21.9893C15.2223 21.9755 15.1938 21.9683 15.1647 21.9685C15.1357 21.9686 15.1073 21.9761 15.0822 21.9902C15.0571 22.0043 15.0364 22.0244 15.0219 22.0487C15.0075 22.0729 14.9999 22.1003 15 22.1283V30.2833C14.9998 30.3144 15.0091 30.3449 15.0268 30.371C15.0444 30.3971 15.0696 30.4177 15.0993 30.4301C15.129 30.4426 15.1618 30.4464 15.1937 30.4411C15.2255 30.4358 15.2551 30.4216 15.2787 30.4003L20.9309 25.353V25.353Z" fill="white"/>
</svg>
