<svg width="49" height="50" viewBox="0 0 49 50" fill="none" xmlns="http://www.w3.org/2000/svg">
<g clip-path="url(#clip0)">
<path d="M44.6517 26.2438C44.6517 14.5793 35.478 5.12332 24.1615 5.12332C12.8451 5.12332 3.67139 14.5793 3.67139 26.2438C3.67139 37.9084 12.8451 47.3643 24.1615 47.3643C35.478 47.3643 44.6517 37.9084 44.6517 26.2438Z" fill="#FF7A00"/>
<path d="M1.3892 41.556L8.00113 48.5035C9.87852 50.4762 12.9519 50.5066 14.8657 48.5714L47.551 15.5212C49.4648 13.5861 49.4943 10.4182 47.6169 8.44552L41.005 1.49807C39.1276 -0.474596 36.0542 -0.505005 34.1404 1.43015L1.45509 34.4803C-0.458696 36.4155 -0.4882 39.5834 1.3892 41.556Z" fill="#FF7A00"/>
<path d="M18.4213 30.6067L30.142 19.0131L29.6544 18.4893L17.9337 30.0829L18.4213 30.6067Z" fill="white"/>
<path d="M12.8055 21.2333L13.8857 22.389L22.2609 14.0944L21.1944 12.9458C20.5545 12.2602 19.677 11.8641 18.7543 11.8443C17.8315 11.8245 16.9388 12.1826 16.2718 12.84L12.9217 16.1593C12.5907 16.4845 12.325 16.8737 12.14 17.3047C11.955 17.7358 11.8542 18.2002 11.8434 18.6714C11.8326 19.1427 11.912 19.6115 12.0771 20.0511C12.2422 20.4906 12.4897 20.8924 12.8055 21.2333V21.2333Z" fill="#C8D3D7"/>
<path d="M22.2579 14.1124L13.8867 22.3928L26.1994 35.6181L34.5706 27.3376L22.2579 14.1124Z" fill="white"/>
<path d="M26.199 35.6166L31.2993 37.5405L36.2219 32.6638L34.5742 27.3362L26.199 35.6166Z" fill="#C8D3D7"/>
<path d="M37.3909 38.9993L40.1872 42.0085L37.3909 38.9993Z" fill="white"/>
<path d="M40.4129 42.0085C40.414 42.039 40.4084 42.0695 40.3966 42.0975C40.3847 42.1256 40.3669 42.1505 40.3445 42.1705C40.3235 42.1925 40.2985 42.2099 40.2709 42.2218C40.2433 42.2337 40.2137 42.2398 40.1838 42.2398C40.1539 42.2398 40.1243 42.2337 40.0968 42.2218C40.0692 42.2099 40.0442 42.1925 40.0232 42.1705L37.2269 39.1684C37.2056 39.1468 37.1887 39.121 37.1772 39.0926C37.1656 39.0642 37.1597 39.0336 37.1597 39.0028C37.1597 38.972 37.1656 38.9415 37.1772 38.9131C37.1887 38.8846 37.2056 38.8589 37.2269 38.8372C37.2473 38.8155 37.2717 38.7982 37.2987 38.7864C37.3258 38.7746 37.3548 38.7685 37.3841 38.7685C37.4135 38.7685 37.4425 38.7746 37.4695 38.7864C37.4966 38.7982 37.521 38.8155 37.5414 38.8372L40.3377 41.8464C40.36 41.8669 40.3782 41.8918 40.3911 41.9196C40.404 41.9475 40.4114 41.9777 40.4129 42.0085V42.0085Z" fill="white"/>
<path d="M33.4324 41.9662L40.4266 35.0458L37.5687 34.1085L32.6393 38.9782V38.9852L33.4324 41.9662Z" fill="#C8D3D7"/>
<path d="M40.4272 35.0478L33.4323 41.9669L34.3553 42.9584L41.3503 36.0393L40.4272 35.0478Z" fill="#AE0808"/>
<path d="M39.5172 42.6709C39.6475 42.8043 39.8132 42.8949 39.9934 42.9313C40.1736 42.9678 40.3602 42.9484 40.5297 42.8757C40.6993 42.8029 40.8441 42.6801 40.946 42.5226C41.0479 42.3651 41.1023 42.1801 41.1023 41.9908C41.1023 41.8016 41.0479 41.6165 40.946 41.4591C40.8441 41.3016 40.6993 41.1787 40.5297 41.106C40.3602 41.0333 40.1736 41.0139 39.9934 41.0503C39.8132 41.0868 39.6475 41.1774 39.5172 41.3108C39.4302 41.3999 39.3611 41.5058 39.314 41.6225C39.2669 41.7392 39.2426 41.8644 39.2426 41.9908C39.2426 42.1173 39.2669 42.2424 39.314 42.3591C39.3611 42.4759 39.4302 42.5818 39.5172 42.6709V42.6709Z" fill="#AE0808"/>
<path d="M22.2268 28.5553C22.2279 28.5859 22.2223 28.6163 22.2105 28.6444C22.1986 28.6724 22.1808 28.6974 22.1584 28.7174C22.1374 28.7394 22.1124 28.7568 22.0848 28.7687C22.0572 28.7806 22.0276 28.7867 21.9977 28.7867C21.9678 28.7867 21.9382 28.7806 21.9106 28.7687C21.8831 28.7568 21.858 28.7394 21.8371 28.7174L16.9487 23.4672C16.907 23.4224 16.8843 23.3623 16.8855 23.3002C16.8868 23.2381 16.912 23.179 16.9555 23.136C16.999 23.093 17.0573 23.0696 17.1176 23.0709C17.1779 23.0723 17.2351 23.0982 17.2769 23.1431L22.1652 28.4003C22.2037 28.4423 22.2256 28.4976 22.2268 28.5553Z" fill="#C8D3D7"/>
<path d="M22.5336 35.8891L22.9479 35.4792L14.1714 26.0522L13.757 26.462L22.5336 35.8891Z" fill="white"/>
<path d="M20.6426 37.7607L21.0569 37.3509L12.2804 27.9238L11.8661 28.3337L20.6426 37.7607Z" fill="white"/>
<path d="M18.735 39.6392L19.1494 39.2294L10.3728 29.8023L9.95846 30.2122L18.735 39.6392Z" fill="white"/>
<path d="M16.8439 41.5109L17.2583 41.101L8.48178 31.674L8.06741 32.0839L16.8439 41.5109Z" fill="white"/>
<path d="M14.9479 43.3875L15.3623 42.9776L6.58578 33.5506L6.17141 33.9604L14.9479 43.3875Z" fill="white"/>
<path d="M13.0569 45.2662L13.4713 44.8563L4.69479 35.4293L4.28043 35.8392L13.0569 45.2662Z" fill="white"/>
<path d="M11.1541 47.1498L11.5685 46.7399L2.79196 37.3129L2.37759 37.7227L11.1541 47.1498Z" fill="white"/>
<path d="M14.5651 26.4766L14.1675 26.0494L2.37281 37.7162L2.77045 38.1433L14.5651 26.4766Z" fill="white"/>
<path d="M16.2513 28.2788L15.8536 27.8517L4.05897 39.5185L4.45661 39.9456L16.2513 28.2788Z" fill="white"/>
<path d="M17.9305 30.0882L17.5329 29.6611L5.73823 41.3279L6.13587 41.755L17.9305 30.0882Z" fill="white"/>
<path d="M19.6118 31.8954L19.2141 31.4683L7.41944 43.135L7.81708 43.5622L19.6118 31.8954Z" fill="white"/>
<path d="M21.2978 33.6977L20.9002 33.2706L9.10554 44.9374L9.50318 45.3645L21.2978 33.6977Z" fill="white"/>
<path d="M22.9771 35.5L22.5795 35.0729L10.7848 46.7397L11.1824 47.1668L22.9771 35.5Z" fill="white"/>
<path d="M46.0477 12.6324L46.462 12.2225L37.6855 2.79547L37.2711 3.20535L46.0477 12.6324Z" fill="white"/>
<path d="M44.1519 14.499L44.5663 14.0891L35.7898 4.66208L35.3754 5.07196L44.1519 14.499Z" fill="white"/>
<path d="M42.2559 16.3755L42.6703 15.9657L33.8938 6.53864L33.4794 6.94851L42.2559 16.3755Z" fill="white"/>
<path d="M40.3599 18.2591L40.7743 17.8492L31.9978 8.42221L31.5834 8.83209L40.3599 18.2591Z" fill="white"/>
<path d="M38.462 20.1308L38.8764 19.7209L30.0999 10.2939L29.6855 10.7038L38.462 20.1308Z" fill="white"/>
<path d="M36.5613 22.0093L36.9757 21.5994L28.1992 12.1724L27.7848 12.5823L36.5613 22.0093Z" fill="white"/>
<path d="M34.6703 23.881L35.0847 23.4711L26.3081 14.0441L25.8938 14.454L34.6703 23.881Z" fill="white"/>
<path d="M38.0879 3.2167L37.6903 2.78958L25.8956 14.4564L26.2933 14.8835L38.0879 3.2167Z" fill="white"/>
<path d="M39.7673 5.02605L39.3696 4.59894L27.575 16.2657L27.9726 16.6928L39.7673 5.02605Z" fill="white"/>
<path d="M41.4484 6.83321L41.0508 6.4061L29.2561 18.0729L29.6538 18.5L41.4484 6.83321Z" fill="white"/>
<path d="M43.123 8.63045L42.7253 8.20334L30.9307 19.8701L31.3283 20.2972L43.123 8.63045Z" fill="white"/>
<path d="M44.8091 10.4328L44.4114 10.0056L32.6168 21.6724L33.0144 22.0995L44.8091 10.4328Z" fill="white"/>
<path d="M46.4903 12.247L46.0927 11.8199L34.298 23.4866L34.6956 23.9138L46.4903 12.247Z" fill="white"/>
<path d="M36.2235 32.6666L31.261 37.5754L32.6054 39.0194L37.5679 34.1107L36.2235 32.6666Z" fill="#AE0808"/>
<path d="M13.6191 23.6505C13.7497 23.7868 13.9255 23.8674 14.1113 23.876C14.2036 23.8784 14.2954 23.8615 14.3812 23.8264C14.4669 23.7913 14.5449 23.7386 14.6104 23.6716L23.4984 14.9049C23.5645 14.8391 23.6172 14.7603 23.6531 14.6731C23.6891 14.5859 23.7076 14.4922 23.7076 14.3975C23.7076 14.3027 23.6891 14.209 23.6531 14.1218C23.6172 14.0346 23.5645 13.9558 23.4984 13.8901C23.4345 13.8208 23.3576 13.7656 23.2724 13.7279C23.1872 13.6902 23.0954 13.6707 23.0027 13.6707C22.91 13.6707 22.8182 13.6902 22.733 13.7279C22.6478 13.7656 22.5709 13.8208 22.507 13.8901L13.6738 22.6357C13.6039 22.6975 13.5469 22.7733 13.5062 22.8584C13.4655 22.9435 13.4418 23.0363 13.4367 23.131C13.4316 23.2258 13.4451 23.3207 13.4765 23.4099C13.5078 23.4992 13.5563 23.581 13.6191 23.6505V23.6505Z" fill="#AE0808"/>
<g style="mix-blend-mode:multiply">
<path d="M20.0799 16.265C16.4222 12.6639 14.6104 14.482 14.6104 14.482L16.2718 12.84C16.9388 12.1826 17.8315 11.8245 18.7543 11.8443C19.677 11.8641 20.5545 12.2602 21.1943 12.9458L22.2609 14.0944L22.5002 13.8548C22.5641 13.7855 22.6409 13.7304 22.7261 13.6926C22.8114 13.6549 22.9031 13.6355 22.9959 13.6355C23.0886 13.6355 23.1804 13.6549 23.2656 13.6926C23.3508 13.7304 23.4277 13.7855 23.4915 13.8548C23.5577 13.9206 23.6103 13.9994 23.6463 14.0866C23.6822 14.1738 23.7008 14.2675 23.7008 14.3622C23.7008 14.457 23.6822 14.5507 23.6463 14.6379C23.6103 14.7251 23.5577 14.8039 23.4915 14.8696L23.2454 15.1092L34.5946 27.3009L36.2355 32.6639V32.6286L37.6029 34.0733L40.4539 35.0106L41.3768 35.9972L39.8932 37.463L38.9703 36.5116L36.1535 35.5391L34.7861 34.0733L32.4274 29.4785L20.5995 16.7935L20.0799 16.265Z" fill="#028CD1"/>
</g>
</g>
<defs>
<clipPath id="clip0">
<rect width="49" height="50" fill="white"/>
</clipPath>
</defs>
</svg>
