<svg width="50" height="50" viewBox="0 0 50 50" fill="none" xmlns="http://www.w3.org/2000/svg">
<circle cx="25" cy="25" r="25" fill="#00DC3E" fill-opacity="0.88"/>
<path d="M33.49 29.8067C33.4483 29.5487 33.2865 29.3283 33.0443 29.1973L29.4605 27.0858L29.431 27.0693C29.2808 26.994 29.1148 26.9555 28.9468 26.9568C28.6465 26.9568 28.3598 27.0705 28.1608 27.27L27.103 28.3282C27.0578 28.3712 26.9103 28.4335 26.8655 28.4357C26.8533 28.4347 25.6348 28.347 23.3915 26.1035C21.1523 23.8648 21.0573 22.6425 21.0565 22.6425C21.0578 22.58 21.1193 22.433 21.163 22.3875L22.065 21.4857C22.3828 21.1672 22.478 20.6392 22.2895 20.2302L20.2975 16.482C20.1528 16.184 19.8715 16 19.5595 16C19.3388 16 19.1258 16.0915 18.9593 16.2578L16.5005 18.711C16.2648 18.9455 16.0618 19.3555 16.0175 19.6855C15.996 19.8433 15.5598 23.6087 20.7223 28.772C25.105 33.1542 28.5225 33.4947 29.4663 33.4947C29.5812 33.4962 29.6961 33.4903 29.8103 33.477C30.1393 33.433 30.5488 33.2305 30.783 32.9957L33.2398 30.5392C33.4403 30.3377 33.5318 30.0715 33.49 29.8067V29.8067Z" fill="white"/>
</svg>
