<?xml version="1.0" encoding="iso-8859-1"?>
<!-- Generator: Adobe Illustrator 19.0.0, SVG Export Plug-In . SVG Version: 6.00 Build 0)  -->
<svg version="1.1" id="Capa_1" xmlns="http://www.w3.org/2000/svg" xmlns:xlink="http://www.w3.org/1999/xlink" x="0px" y="0px"
	 viewBox="0 0 512 512" style="enable-background:new 0 0 512 512;" xml:space="preserve">
<g>
	<path style="fill:#E6646E;" d="M134.456,346.931L77.759,463.088c-2.85,5.839,1.729,12.564,8.207,12.051l43.647-3.457l24.127,36.537
		c3.581,5.422,11.699,4.896,14.55-0.944l54.563-111.785L134.456,346.931z"/>
	<path style="fill:#E6646E;" d="M377.908,346.753l-88.078,49.214l54.336,111.32c2.849,5.837,10.963,6.366,14.546,0.948l24.146-36.51
		l43.638,3.425c6.475,0.508,11.05-6.214,8.201-12.052L377.908,346.753z"/>
</g>
<g>
	<path style="fill:#DC4655;" d="M190.493,377.714l-22.097-12.138l-33.941-18.645l-11.031,22.599
		c0.303,0.395,0.204,0.267,0.507,0.662c4.919-0.619,9.607,2.135,11.608,6.481c2.908,6.313,7.215,11.699,12.432,15.922
		c3.034,2.456,3.995,6.645,2.282,10.154l-9.874,20.231c-3.05,6.255-0.459,13.789,5.788,16.839c1.779,0.869,3.665,1.279,5.517,1.279
		c4.665,0,9.141-2.599,11.322-7.067l15.354-31.458c2.247-0.105,4.501-0.223,6.71-0.663c0.726-0.145,1.469-0.218,2.206-0.218
		c3.141,0,6.165,1.323,8.296,3.631c4.712,5.101,10.544,8.938,16.924,11.386l10.356-21.217L190.493,377.714z"/>
	<path style="fill:#DC4655;" d="M377.908,346.753l-88.078,49.214l10.054,20.597c6.23-2.456,11.924-6.242,16.542-11.243
		c2.132-2.307,5.155-3.631,8.295-3.631c0.739,0,1.482,0.073,2.209,0.218c2.363,0.471,4.778,0.624,7.183,0.71l15.33,31.411
		c2.181,4.468,6.657,7.067,11.322,7.067c1.853,0,3.738-0.41,5.517-1.279c6.247-3.05,8.838-10.584,5.788-16.839l-9.995-20.479
		c-1.706-3.495-0.75-7.658,2.251-10.132c5.229-4.312,9.52-9.806,12.375-16.231c1.531-3.446,4.775-5.554,8.527-5.937
		c1.296-0.133,2.504-0.501,3.756-0.753L377.908,346.753z"/>
</g>
<path style="fill:#FFD164;" d="M269.732,3.587L269.732,3.587c11.334-6.353,25.545-4.102,34.361,5.442l0,0
	c6.635,7.183,16.529,10.398,26.119,8.487l0,0c12.742-2.54,25.563,3.993,30.997,15.794l0,0c4.09,8.882,12.507,14.997,22.218,16.142
	l0,0c12.903,1.522,23.078,11.697,24.6,24.6l0,0c1.146,9.711,7.26,18.128,16.142,22.218l0,0
	c11.801,5.435,18.334,18.255,15.794,30.997l0,0c-1.911,9.59,1.303,19.484,8.487,26.119l0,0c9.544,8.816,11.795,23.027,5.442,34.361
	l0,0c-4.781,8.53-4.781,18.933,0,27.463l0,0c6.353,11.334,4.102,25.545-5.442,34.361l0,0c-7.183,6.635-10.398,16.529-8.487,26.119
	l0,0c2.54,12.742-3.993,25.563-15.794,30.997l0,0c-8.882,4.09-14.997,12.507-16.142,22.218l0,0
	c-1.522,12.903-11.697,23.078-24.6,24.6l0,0c-9.711,1.146-18.128,7.26-22.218,16.142l0,0c-5.435,11.801-18.255,18.334-30.997,15.794
	l0,0c-9.59-1.911-19.484,1.303-26.119,8.487l0,0c-8.816,9.544-23.027,11.795-34.361,5.442l0,0c-8.53-4.781-18.933-4.781-27.463,0
	l0,0c-11.334,6.353-25.545,4.102-34.361-5.442l0,0c-6.635-7.183-16.529-10.398-26.119-8.487l0,0
	c-12.742,2.54-25.563-3.993-30.997-15.794l0,0c-4.09-8.882-12.507-14.997-22.218-16.142l0,0c-12.903-1.522-23.078-11.697-24.6-24.6
	l0,0c-1.146-9.711-7.26-18.128-16.142-22.218l0,0c-11.801-5.435-18.334-18.255-15.794-30.997l0,0
	c1.911-9.59-1.303-19.484-8.487-26.119l0,0c-9.544-8.816-11.795-23.027-5.442-34.361l0,0c4.781-8.53,4.781-18.933,0-27.463l0,0
	c-6.353-11.334-4.102-25.545,5.442-34.361l0,0c7.183-6.635,10.398-16.529,8.487-26.119l0,0c-2.54-12.742,3.993-25.563,15.794-30.997
	l0,0c8.882-4.09,14.997-12.507,16.142-22.218l0,0c1.522-12.903,11.697-23.078,24.6-24.6l0,0c9.711-1.146,18.128-7.26,22.218-16.142
	l0,0c5.435-11.801,18.255-18.334,30.997-15.794l0,0c9.59,1.912,19.484-1.303,26.119-8.487l0,0
	c8.816-9.544,23.027-11.795,34.361-5.442l0,0C250.798,8.369,261.202,8.369,269.732,3.587z"/>
<path style="fill:#FFC350;" d="M410.61,286.223c16.312-29.686,24.331-64.571,20.904-101.548
	c-7.729-83.409-75.301-150.981-158.71-158.71c-36.977-3.426-71.862,4.593-101.548,20.904c-4.742,2.606-10.177-2.17-8.009-7.128
	c3.427-7.837,7.353-15.404,11.771-22.644c-9.845,0.453-18.932,5.998-23.613,14.961c-4.686,8.972-12.869,16.188-22.917,17.404
	c-12.863,1.557-22.996,11.714-24.515,24.589c-1.163,9.86-7.124,18.066-16.142,22.219c-11.801,5.434-18.334,18.255-15.795,30.996
	c1.941,9.737-1.194,19.384-8.487,26.121c-9.544,8.815-11.794,23.027-5.442,34.36c4.855,8.661,4.855,18.804,0,27.465
	c-6.353,11.333-4.102,25.544,5.442,34.359c7.293,6.737,10.428,16.384,8.487,26.121c-2.539,12.741,3.992,25.561,15.792,30.995
	c9.019,4.154,14.981,12.359,16.145,22.22c1.523,12.903,11.696,23.077,24.599,24.599c9.86,1.163,18.066,7.125,22.219,16.143
	c5.435,11.801,18.255,18.333,30.996,15.794c9.737-1.941,19.384,1.194,26.121,8.487c8.815,9.544,23.027,11.794,34.36,5.442
	c8.661-4.855,18.804-4.855,27.465,0c11.333,6.352,25.544,4.102,34.36-5.442c6.737-7.294,16.384-10.428,26.121-8.487
	c12.742,2.539,25.563-3.994,30.997-15.796c4.152-9.018,12.359-14.978,22.218-16.141c12.874-1.519,23.032-11.652,24.589-24.515
	c1.216-10.049,8.434-18.232,17.406-22.918c8.961-4.681,14.506-13.766,14.959-23.611c-7.24,4.418-14.808,8.344-22.644,11.771
	C412.78,296.4,408.004,290.965,410.61,286.223z"/>
<circle style="fill:#FFEDB1;" cx="256" cy="201.48" r="159.5"/>
<path style="fill:#FFE17D;" d="M300.719,279.152C239.75,266.318,191.161,217.73,178.327,156.76
	c-4.314-20.493-4.537-40.384-1.446-59.159c1.038-6.304-6.415-10.361-11.353-6.308c-36.296,29.786-57.69,77.024-51.035,128.99
	c8.119,63.405,59.298,114.583,122.703,122.703c51.967,6.655,99.204-14.739,128.99-51.035c4.053-4.938-0.005-12.391-6.308-11.353
	C341.102,283.689,321.212,283.465,300.719,279.152z"/>
<g>
	<path style="fill:#FFFFFF;" d="M373.299,165.079c-1.344-8.255-9.096-13.969-17.459-13.969h-66.26c0,0,12.584-18.876,21.41-45.735
		c2.348-7.144-1.675-14.847-8.809-17.225l-0.483-0.161c-6.561-2.187-13.783,0.777-16.751,7.024
		c-6.08,12.797-18.488,33.787-38.643,47.611c-4.482,3.074-7.095,8.216-7.095,13.651v120.76c0,4.636,3.759,8.395,8.395,8.395h83.052
		c8.364,0,16.115-5.716,17.458-13.971c1.711-10.519-6.363-19.609-16.56-19.609h7.497c8.364,0,16.116-5.716,17.458-13.971
		c1.711-10.519-6.363-19.609-16.56-19.609h7.497c8.364,0,16.116-5.716,17.458-13.971c1.71-10.519-6.364-19.609-16.56-19.609h8.395
		C366.938,184.689,375.011,175.597,373.299,165.079z"/>
	<path style="fill:#FFFFFF;" d="M205.63,293.824h-33.58c-9.273,0-16.79-7.517-16.79-16.79v-117.53c0-9.273,7.517-16.79,16.79-16.79
		h33.58c9.273,0,16.79,7.517,16.79,16.79v117.53C222.42,286.307,214.903,293.824,205.63,293.824z"/>
</g>
<circle style="fill:#FFE17D;" cx="188.84" cy="260.24" r="8.395"/>
<g>
	<path style="fill:#FFF6D8;" d="M323.16,235.059c-4.637,0-8.395,3.758-8.395,8.395c0,4.636,3.758,8.395,8.395,8.395h15.892
		c8.364,0,16.116-5.716,17.458-13.971c0.156-0.96,0.146-1.889,0.145-2.819L323.16,235.059L323.16,235.059z"/>
	<path style="fill:#FFF6D8;" d="M331.555,201.479c-4.637,0-8.395,3.758-8.395,8.395c0,4.636,3.758,8.395,8.395,8.395h15.892
		c8.364,0,16.116-5.716,17.458-13.971c0.156-0.96,0.146-1.889,0.144-2.819L331.555,201.479L331.555,201.479z"/>
	<path style="fill:#FFF6D8;" d="M331.555,176.294c0,4.636,3.758,8.395,8.395,8.395h16.79c9.267,0,16.695-7.526,16.705-16.79h-33.495
		C335.313,167.899,331.555,171.658,331.555,176.294z"/>
	<path style="fill:#FFF6D8;" d="M306.37,268.639c-27.818,0-50.37-22.551-50.37-50.37v-33.58c0-9.273-7.517-16.79-16.79-16.79
		v109.135c0,4.636,3.759,8.395,8.395,8.395h83.052c9.267,0,17.783-7.017,17.661-16.731c-0.022-0.023-0.036-0.037-0.058-0.059
		L306.37,268.639z"/>
	<path style="fill:#FFF6D8;" d="M172.05,260.244v-75.555c0-9.273-7.517-16.79-16.79-16.79l0,0v109.135
		c0,9.273,7.517,16.79,16.79,16.79h33.58c9.273,0,16.79-7.517,16.79-16.79l0,0h-33.58
		C179.567,277.034,172.05,269.517,172.05,260.244z"/>
</g>
<g>
</g>
<g>
</g>
<g>
</g>
<g>
</g>
<g>
</g>
<g>
</g>
<g>
</g>
<g>
</g>
<g>
</g>
<g>
</g>
<g>
</g>
<g>
</g>
<g>
</g>
<g>
</g>
<g>
</g>
</svg>
